<?xml version="1.0" standalone="no"?>
<!DOCTYPE svg PUBLIC "-//W3C//DTD SVG 20010904//EN"
 "http://www.w3.org/TR/2001/REC-SVG-20010904/DTD/svg10.dtd">
<svg version="1.0" xmlns="http://www.w3.org/2000/svg"
 width="336.000000pt" height="336.000000pt" viewBox="0 0 336.000000 336.000000"
 preserveAspectRatio="xMidYMid meet">

<g transform="translate(0.000000,336.000000) scale(0.100000,-0.100000)"
fill="#000000" stroke="none">
<path d="M1609 2665 c-3 -2 -43 -5 -89 -6 -158 -3 -248 -17 -319 -51 -140 -67
-222 -148 -262 -260 -13 -37 -25 -65 -27 -63 -2 2 -23 -3 -47 -12 -48 -16 -59
-37 -49 -99 9 -58 21 -82 51 -101 38 -24 39 -26 36 -80 -1 -27 -5 -97 -8 -158
-4 -89 -9 -112 -23 -122 -104 -72 -123 -100 -116 -168 11 -108 15 -135 23
-159 11 -28 65 -66 94 -66 15 0 17 -13 17 -122 1 -173 9 -428 16 -528 8 -102
8 -304 0 -380 -3 -30 -8 -108 -12 -173 -5 -100 -4 -117 9 -117 11 0 16 17 21
73 25 314 30 355 43 350 15 -6 16 -3 13 104 -1 45 2 113 6 150 l8 68 7 -45 c4
-25 5 -86 2 -137 -6 -117 0 -148 31 -149 21 -2 25 5 35 54 6 30 11 69 11 85 0
17 3 28 6 25 10 -10 12 -42 3 -64 -9 -27 7 -56 20 -35 14 21 31 3 31 -33 0
-37 21 -61 45 -52 8 3 15 13 15 23 0 12 6 8 20 -15 35 -57 53 -37 39 47 -4 29
-11 56 -14 60 -4 3 -4 -11 0 -31 4 -21 4 -46 1 -55 -6 -14 -9 -12 -21 11 -27
51 -17 96 20 89 20 -4 26 -15 40 -80 16 -69 41 -113 65 -113 6 0 10 6 10 13 0
18 50 15 79 -5 24 -17 21 -22 -22 -32 -33 -8 -27 -26 9 -26 24 0 24 0 25 -112
1 -154 2 -161 17 -166 11 -3 13 22 10 140 l-3 145 180 6 c170 6 257 19 328 48
23 10 30 10 37 -1 9 -15 30 -5 30 15 0 7 26 35 57 62 68 58 200 215 220 261
21 51 31 183 25 357 -8 240 -8 342 2 660 8 277 9 292 32 337 13 26 24 60 24
76 0 66 -40 135 -85 146 -17 4 -28 19 -40 56 -9 27 -27 65 -40 84 -12 18 -26
43 -29 53 -10 31 -123 138 -172 162 -52 26 -121 37 -294 46 -69 4 -128 9 -131
11 -3 2 -8 2 -10 -1z m326 -56 c86 -15 133 -39 193 -100 50 -51 103 -144 137
-238 l14 -41 -38 0 -37 0 -13 65 c-13 64 -65 160 -81 150 -5 -3 5 -31 20 -63
16 -31 32 -78 36 -103 5 -44 5 -46 -18 -43 -12 1 -30 3 -39 3 -13 1 -18 16
-23 67 -7 70 -26 118 -49 127 -12 5 -12 0 1 -26 9 -18 18 -62 20 -99 l4 -68
-39 0 c-39 0 -39 0 -41 43 -4 79 -26 157 -43 157 -12 0 -12 1 6 -67 8 -31 15
-74 15 -95 l0 -38 -45 0 -45 0 0 53 c0 29 -7 74 -16 100 -18 54 -40 65 -29 15
4 -18 9 -63 12 -100 l5 -68 -51 0 -51 0 0 90 c0 69 -3 88 -13 84 -9 -3 -14
-25 -14 -62 -2 -112 4 -102 -58 -102 l-56 0 7 84 c4 57 3 86 -5 90 -7 5 -11
-2 -12 -16 -2 -49 -9 -114 -14 -135 -4 -19 -12 -23 -43 -23 l-38 0 4 86 c3 56
1 89 -7 97 -8 8 -11 5 -12 -13 -4 -58 -8 -107 -14 -137 -6 -32 -8 -33 -52 -33
l-46 0 7 58 c4 31 9 74 13 96 4 30 2 38 -8 34 -9 -3 -19 -38 -29 -96 l-14 -91
-46 2 -45 3 1 45 c1 25 11 65 23 89 23 48 25 60 13 60 -16 0 -60 -94 -67 -142
-8 -51 -16 -56 -73 -50 -20 3 -31 9 -28 16 2 6 15 43 28 81 12 39 27 73 33 77
5 4 7 10 3 13 -14 14 -62 -72 -92 -167 -3 -11 -15 -18 -32 -18 -25 0 -26 2
-19 38 3 20 18 54 31 75 31 48 27 67 -7 33 -26 -25 -49 -85 -49 -125 0 -16 -6
-21 -26 -21 -24 0 -26 3 -20 30 8 43 47 130 57 130 5 0 9 6 9 14 0 18 96 93
170 133 105 57 137 61 420 57 140 -3 282 -10 315 -15z m-680 -384 c132 -2 353
-7 490 -11 491 -11 550 -11 562 -2 46 37 98 -103 59 -155 -13 -17 -30 -18
-248 -13 -128 3 -444 8 -703 11 -505 7 -517 8 -550 59 -9 13 -18 46 -22 74
l-6 50 89 -3 c49 -3 197 -7 329 -10z m-280 -280 c-4 -89 4 -110 25 -70 12 23
10 62 -5 98 -4 10 -3 17 4 17 6 0 11 -8 11 -18 0 -22 37 -68 47 -58 4 3 -3 20
-15 36 -23 30 -29 60 -13 60 5 0 12 -6 14 -12 3 -8 6 -6 6 5 1 9 6 17 11 17 6
0 10 -25 10 -55 0 -39 -4 -56 -16 -63 -13 -7 -14 -13 -6 -29 12 -21 4 -103 -9
-103 -4 0 -13 8 -18 18 -9 14 -11 12 -12 -13 -1 -24 -3 -25 -6 -7 -2 12 -8 22
-12 22 -3 0 -8 11 -9 23 -2 28 -28 82 -39 82 -9 0 -5 18 6 25 10 6 10 40 0 40
-4 0 -9 16 -11 35 -3 31 -1 35 18 35 22 0 22 -3 19 -85z m562 76 c2 -1 -15
-25 -37 -53 -22 -29 -46 -68 -52 -85 -12 -33 -42 -44 -63 -24 -6 5 -45 6 -88
4 -60 -4 -80 -10 -85 -22 -3 -9 -12 -20 -20 -25 -13 -8 -13 -12 3 -95 2 -13 2
-21 -2 -17 -3 3 -12 1 -20 -5 -7 -6 -13 -7 -13 -2 0 5 -16 9 -34 10 -32 1 -34
-1 -23 -18 6 -10 16 -19 21 -19 5 0 20 -10 33 -22 l23 -21 -26 -14 c-32 -16
-54 -17 -54 -1 0 6 -6 3 -14 -7 -8 -11 -12 -24 -9 -28 3 -5 9 -3 14 4 6 10 9
11 9 2 0 -8 15 -13 39 -13 22 0 43 -5 46 -10 4 -6 -12 -32 -34 -59 -65 -78
-53 -102 28 -56 l44 25 -7 -42 c-4 -24 -9 -53 -13 -65 -11 -48 23 -21 56 43
22 43 37 62 44 55 6 -6 4 -26 -7 -58 -32 -90 -57 -237 -59 -343 -2 -119 11
-143 32 -60 50 201 109 366 125 350 20 -20 26 -9 26 43 0 30 3 56 6 59 3 4 21
0 39 -8 19 -8 39 -14 45 -14 15 0 12 19 -5 36 -22 22 -19 29 18 39 l32 10 1
155 c1 128 -1 158 -14 173 -14 15 -14 24 -4 63 7 25 19 61 27 80 l15 35 365
-3 365 -3 0 -40 c0 -22 2 -206 3 -408 l3 -368 -27 -30 c-14 -16 -31 -29 -37
-29 -7 0 -12 -14 -12 -30 0 -17 -6 -33 -14 -36 -8 -3 -17 -28 -21 -61 -10 -84
-12 -86 -47 -65 -17 9 -39 28 -50 42 l-21 25 5 -27 c5 -28 -13 -40 -27 -18
-12 19 -45 11 -45 -10 0 -26 -22 -26 -38 1 -16 25 -51 22 -66 -6 -6 -11 -12
-22 -14 -24 -1 -3 -13 6 -27 19 -14 13 -25 20 -25 17 0 -4 -12 0 -26 9 -25 17
-26 17 -54 -16 -28 -33 -30 -33 -48 -16 -19 16 -21 16 -40 -8 -21 -27 -74 -36
-87 -16 -5 9 15 15 38 11 14 -2 19 29 7 44 -14 17 -84 12 -108 -7 -19 -16 -8
-20 22 -8 19 7 25 7 21 -1 -4 -5 -18 -15 -32 -20 -16 -6 -23 -15 -19 -24 3 -8
1 -17 -4 -20 -6 -4 -10 -12 -10 -18 0 -8 3 -7 9 2 13 20 151 2 151 -20 0 -5 5
-9 10 -9 6 0 10 6 10 14 0 22 15 27 44 16 21 -7 28 -6 39 10 12 17 16 18 34 5
18 -13 22 -13 33 1 12 13 16 12 35 -6 23 -22 23 -22 74 7 2 2 0 8 -6 15 -5 7
-9 19 -9 27 1 25 23 23 41 -5 14 -22 15 -28 4 -35 -10 -6 -7 -9 11 -11 27 -2
49 -4 65 -8 6 -1 13 -2 18 -1 4 0 7 -6 7 -15 0 -10 6 -14 14 -11 11 4 15 -7
18 -51 5 -78 -10 -162 -27 -156 -20 8 -46 -40 -60 -109 -9 -44 -13 -53 -14
-30 -1 36 -10 46 -31 32 -13 -7 -12 -9 1 -9 17 0 21 -28 13 -77 -8 -42 -23
-24 -19 22 3 41 2 44 -15 33 -11 -7 -15 -15 -11 -18 5 -3 1 -29 -9 -59 -10
-32 -20 -49 -24 -43 -12 19 -25 14 -19 -8 4 -15 -2 -22 -22 -30 -43 -16 -64
-13 -58 10 3 13 14 20 29 20 13 0 24 3 24 8 0 4 3 18 7 31 4 17 3 22 -5 17 -7
-4 -12 -1 -12 8 0 25 28 19 33 -6 l4 -23 2 22 c0 12 -7 28 -17 35 -10 7 -27
32 -37 56 -10 23 -22 42 -27 42 -4 0 -8 16 -8 35 0 19 -2 35 -4 35 -2 0 -11 3
-20 6 -13 5 -16 -2 -16 -40 0 -47 -19 -66 -21 -21 -2 39 -3 43 -16 56 -14 14
-37 2 -25 -14 14 -17 24 -137 12 -137 -6 0 -9 3 -9 8 3 19 -2 33 -11 27 -5 -3
-10 2 -10 12 0 11 -6 27 -13 38 -13 16 -15 14 -25 -26 -6 -25 -7 -46 -2 -49 5
-3 1 -20 -7 -39 -15 -30 -18 -31 -29 -17 -7 10 -15 13 -18 8 -3 -5 0 -15 8
-21 26 -21 5 -68 -28 -62 -5 1 -6 -5 -3 -12 3 -9 -4 -19 -19 -26 -31 -14 -34
-14 -34 0 0 5 4 8 9 5 29 -18 64 124 38 151 -4 4 -14 -2 -22 -13 -15 -20 -18
-15 -15 29 3 43 -17 31 -26 -15 -7 -39 -8 -41 -15 -18 -4 14 -7 40 -8 58 -1
29 -4 33 -23 30 -19 -2 -24 2 -26 25 -5 42 -29 33 -38 -15 -4 -24 -9 -46 -10
-50 -1 -5 -2 -13 -3 -19 -2 -23 -19 3 -31 48 -6 26 -16 51 -23 55 -8 5 -8 10
0 20 9 10 7 27 -6 65 -16 46 -16 54 -3 67 13 12 13 18 2 30 -19 24 -33 19 -26
-9 4 -14 2 -25 -4 -25 -10 0 -14 18 -10 60 2 28 31 60 55 60 14 0 14 -3 0 -30
-19 -37 -10 -39 21 -2 27 31 33 75 9 66 -8 -4 -16 -1 -16 5 -1 6 -2 17 -3 23
-2 22 -34 20 -41 -1 -3 -12 -10 -21 -15 -21 -4 0 -11 -11 -14 -25 -7 -29 -18
-32 -36 -10 -10 12 -9 16 4 21 9 3 16 13 16 20 0 12 -4 12 -20 4 -23 -12 -40
-6 -40 15 0 8 -5 26 -10 41 -10 26 -11 26 -25 8 -13 -18 -14 -17 -15 14 0 17
-5 32 -11 32 -7 0 -9 10 -5 28 4 15 8 36 9 47 2 13 8 19 21 17 15 -3 17 1 11
15 -3 10 -9 27 -11 38 -2 11 -8 21 -14 23 -5 2 -10 11 -10 20 0 8 -3 12 -7 9
-3 -4 -1 -18 6 -31 26 -48 4 -51 -25 -3 -30 49 -44 59 -44 30 0 -15 -2 -16
-10 -3 -13 20 -13 33 0 25 6 -3 13 1 16 10 4 9 13 14 20 11 12 -5 12 -2 0 17
-8 12 -17 36 -21 52 -3 17 -16 43 -29 59 l-23 28 -12 -33 c-6 -18 -14 -30 -17
-27 -7 8 18 91 31 101 6 5 5 12 -6 20 -10 7 -19 36 -23 74 -6 54 -5 62 9 57
11 -5 15 -21 15 -65 0 -61 19 -84 22 -26 4 81 2 104 -10 136 -9 26 -10 43 -1
68 6 18 15 31 20 28 5 -4 10 3 11 14 0 12 1 27 2 34 1 6 7 18 14 25 14 16 16
38 2 47 -6 4 -6 15 0 31 6 14 10 37 10 51 0 18 4 24 15 19 17 -6 21 19 5 29
-35 22 5 26 208 21 119 -2 218 -5 219 -5z m-23 -103 c-4 -18 -7 -41 -6 -50 0
-11 -6 -18 -19 -18 -10 0 -19 5 -19 11 0 10 42 89 48 89 2 0 0 -15 -4 -32z
m-562 -111 c-2 -23 2 -56 7 -73 7 -25 5 -36 -8 -49 -9 -10 -10 -15 -3 -11 15
9 16 -10 2 -19 -8 -5 -8 -11 0 -20 13 -15 11 -175 -2 -175 -4 0 -8 -11 -8 -25
0 -16 6 -25 15 -25 14 0 14 -3 1 -29 -9 -16 -13 -31 -10 -33 2 -3 -1 -18 -7
-34 l-12 -29 -6 25 c-5 16 -18 29 -39 35 -73 24 -83 41 -90 147 -4 53 -4 105
1 115 4 10 35 37 68 60 52 38 59 47 59 76 0 19 3 37 7 41 4 4 6 26 4 49 -2 34
0 40 10 29 8 -7 12 -30 11 -55z m356 13 c9 0 6 -12 -9 -41 -21 -41 -21 -42
-40 -22 -28 27 -17 77 15 69 11 -3 27 -6 34 -6z m119 -8 c21 -7 21 -7 -8 -40
-17 -19 -32 -32 -34 -30 -2 1 -6 20 -10 41 -8 40 0 44 52 29z m97 -55 l0 -52
-39 -3 c-33 -3 -37 -1 -31 15 4 10 12 34 18 53 8 25 18 36 32 38 19 1 21 -4
20 -51z m-247 -47 c6 0 21 14 33 30 28 39 40 38 40 -5 0 -42 22 -56 49 -31 10
9 21 16 24 16 13 0 7 -28 -9 -41 -14 -11 -13 -14 7 -24 14 -8 18 -15 10 -19
-18 -12 -12 -34 12 -42 l22 -7 -22 -10 c-14 -6 -23 -19 -23 -32 0 -13 10 -29
23 -38 34 -23 17 -27 -27 -6 -22 10 -42 19 -44 19 -3 0 -2 -23 0 -52 l5 -52
-23 27 c-13 15 -26 27 -30 27 -4 0 -13 8 -20 18 -15 18 -18 17 -51 -35 -10
-16 -12 -14 -12 16 -1 32 -2 33 -31 28 -35 -7 -38 2 -10 28 25 22 26 44 3 61
-14 10 -15 16 -6 22 10 6 10 12 -2 28 -23 31 -19 47 11 40 24 -6 26 -5 20 16
-4 13 -9 37 -12 53 l-6 30 29 -33 c15 -18 33 -32 40 -32z m253 -79 l0 -40 -32
11 c-44 15 -44 14 -12 42 39 34 44 33 44 -13z m-9 -86 c0 -13 -37 -19 -59 -9
-14 6 -13 8 8 14 31 10 51 8 51 -5z m-210 -301 c-28 -82 -51 -144 -51 -138 0
25 42 222 58 267 13 40 18 45 30 34 11 -12 5 -37 -37 -163z m-278 121 c-3 -9
-8 -14 -10 -11 -3 3 -2 9 2 15 9 16 15 13 8 -4z m15 -85 c7 -11 8 -20 3 -20
-6 0 -14 7 -19 16 -6 10 -7 -11 -4 -60 3 -53 1 -76 -7 -76 -6 0 -11 6 -11 14
0 8 -7 22 -16 30 -8 9 -11 16 -6 16 6 0 9 8 7 18 -1 9 0 22 4 27 6 11 8 17 10
40 2 21 24 19 39 -5z m-108 -47 c-11 -17 -11 -17 -6 0 3 10 6 24 7 30 0 9 2 9
5 0 3 -7 0 -20 -6 -30z m11 -160 c0 -65 0 -138 1 -163 0 -108 -6 -116 -12 -15
-11 172 -11 295 0 295 6 0 10 -46 11 -117z m169 30 c0 -28 -4 -54 -10 -58 -5
-3 -8 -19 -7 -34 1 -21 5 -27 14 -20 8 7 13 1 18 -21 4 -17 4 -34 1 -37 -3 -4
-6 -1 -6 6 0 7 -4 9 -10 6 -5 -3 -10 -21 -10 -38 l1 -32 14 25 c14 24 14 24
15 4 0 -12 -6 -36 -14 -54 -13 -32 -14 -32 -25 -12 -6 11 -11 38 -12 59 0 21
-3 32 -6 26 -6 -17 -23 -16 -23 1 0 8 8 17 17 20 10 4 13 10 8 14 -6 4 -10 20
-10 36 0 42 -25 46 -26 4 0 -37 -16 -84 -19 -58 -10 83 5 127 49 142 10 3 14
19 14 57 -1 47 0 51 13 34 7 -10 14 -41 14 -70z m-130 41 c0 -8 -4 -12 -10 -9
-5 3 -10 13 -10 21 0 8 5 12 10 9 6 -3 10 -13 10 -21z m1319 -13 c-15 -5 -22
6 -14 19 6 9 10 9 16 -1 5 -8 4 -15 -2 -18z m-1246 -5 c5 -12 -2 -14 -31 -7
-2 1 0 6 3 11 9 14 22 12 28 -4z m1218 -83 c-9 -16 -10 -15 -11 9 0 14 3 35 8
45 6 15 8 14 10 -9 2 -15 -1 -35 -7 -45z m-1284 25 c-3 -7 -5 -2 -5 12 0 14 2
19 5 13 2 -7 2 -19 0 -25z m1323 -50 c0 -39 -2 -69 -5 -66 -9 9 -9 138 0 138
3 0 5 -32 5 -72z m-69 -21 c-9 -9 -10 -5 -7 13 6 36 8 37 13 16 3 -10 0 -23
-6 -29z m-621 -41 c0 -2 -7 -7 -16 -10 -8 -3 -12 -2 -9 4 6 10 25 14 25 6z
m170 -16 c0 -5 -5 -10 -11 -10 -5 0 -7 5 -4 10 3 6 8 10 11 10 2 0 4 -4 4 -10z
m278 -18 c3 -22 3 -23 -17 -5 -26 21 -27 36 -3 31 9 -2 18 -14 20 -26z m195
-22 c-7 -28 -13 -25 -13 6 0 14 4 23 9 20 5 -3 7 -15 4 -26z m-83 -2 c0 -13
-23 -5 -28 10 -2 7 2 10 12 6 9 -3 16 -11 16 -16z m-1173 -30 c-3 -8 -6 -5 -6
6 -1 11 2 17 5 13 3 -3 4 -12 1 -19z m203 0 c0 -19 -2 -20 -10 -8 -13 19 -13
30 0 30 6 0 10 -10 10 -22z m950 -4 c0 4 4 5 9 1 6 -3 6 -17 1 -35 -5 -18 -5
-30 1 -30 5 0 9 7 9 16 0 14 2 14 15 0 20 -19 19 -40 -2 -79 l-18 -32 -3 43
c-3 45 -22 59 -22 17 0 -16 -6 -25 -15 -25 -13 0 -15 13 -13 74 3 70 4 73 21
59 9 -9 17 -13 17 -9z m-1123 -41 c-3 -10 -5 -2 -5 17 0 19 2 27 5 18 2 -10 2
-26 0 -35z m152 -16 c1 21 5 22 61 14 2 -1 -1 -6 -8 -13 -7 -7 -12 -26 -13
-42 -1 -24 -2 -27 -7 -11 -4 11 -12 21 -19 22 -9 2 -10 -4 -3 -23 6 -15 7 -32
1 -41 -14 -26 -27 11 -34 92 l-6 70 14 -45 c8 -26 13 -36 14 -23z m1107 38 c1
-8 -2 -15 -7 -15 -5 0 -9 10 -9 22 0 23 12 17 16 -7z m-1203 -47 c19 4 21 -30
8 -143 -7 -60 -7 -60 -20 -30 -12 29 -11 74 3 105 5 12 -1 16 -22 18 -22 2
-31 -4 -39 -20 -9 -20 -10 -17 -8 17 3 57 3 58 20 51 8 -3 15 -1 15 5 0 6 6 7
13 2 6 -4 20 -6 30 -5z m1180 -7 c-2 -10 2 -24 10 -32 14 -14 13 -22 -6 -69
l-10 -25 -7 25 c-12 39 -11 95 2 108 16 16 17 15 11 -7z m-1313 -58 c0 -32 -4
-53 -8 -46 -7 11 -4 103 4 103 2 0 4 -26 4 -57z m1280 42 c0 -8 -4 -15 -10
-15 -5 0 -10 7 -10 15 0 8 5 15 10 15 6 0 10 -7 10 -15z m-945 -77 c5 -18 3
-28 -4 -28 -6 0 -11 9 -11 19 0 11 -3 28 -6 38 -5 12 -4 15 4 8 6 -5 14 -22
17 -37z m-39 -8 c-5 -40 -12 -46 -31 -27 -13 14 -14 20 -3 37 19 31 38 25 34
-10z m874 -27 c0 -13 -4 -23 -9 -23 -5 0 -9 16 -9 36 0 25 3 33 9 23 5 -8 9
-24 9 -36z m59 -9 c-6 -8 -15 -29 -19 -47 -6 -29 -7 -27 -11 22 -3 45 -1 55
13 59 10 2 19 9 19 16 1 6 4 1 6 -12 3 -13 -1 -30 -8 -38z m51 -9 c2 -5 -1
-19 -6 -30 -8 -18 -9 -17 -14 10 -3 17 -3 44 -1 60 l5 30 6 -30 c4 -16 9 -34
10 -40z m-1060 35 c0 -14 -15 -19 -29 -10 -17 10 -5 31 14 23 8 -3 15 -9 15
-13z m27 -74 c-4 -9 -11 -16 -16 -16 -14 0 -18 33 -7 53 10 16 12 16 20 -2 5
-11 6 -27 3 -35z m70 22 c-3 -7 -5 -2 -5 12 0 14 2 19 5 13 2 -7 2 -19 0 -25z
m-330 -10 c-3 -7 -5 -2 -5 12 0 14 2 19 5 13 2 -7 2 -19 0 -25z m208 -75 c-9
-37 -18 -20 -9 19 4 18 9 27 11 20 3 -7 2 -24 -2 -39z m103 9 c6 -18 -15 -14
-22 4 -4 10 -1 14 6 12 6 -2 14 -10 16 -16z m884 -44 c-18 -19 -19 -19 -18 -1
0 10 8 26 16 35 13 14 15 14 18 1 2 -9 -5 -24 -16 -35z m-321 -55 c-6 -29 -16
-63 -23 -76 -12 -20 -13 -16 -16 42 -2 42 1 67 9 72 7 4 13 18 15 31 4 35 4
35 15 9 6 -15 6 -43 0 -78z m246 75 c-3 -8 -6 -5 -6 6 -1 11 2 17 5 13 3 -3 4
-12 1 -19z m11 -85 c-13 -17 -29 -17 -24 0 3 6 8 26 11 42 l8 30 8 -29 c5 -19
4 -35 -3 -43z m-344 -23 c3 -17 9 -43 12 -60 l6 -30 -51 0 c-56 0 -69 18 -27
38 17 7 25 22 30 52 7 46 21 46 30 0z m-217 -2 c-3 -7 -5 -2 -5 12 0 14 2 19
5 13 2 -7 2 -19 0 -25z m-42 -56 c4 -10 10 -10 27 -1 l23 11 -23 -23 c-19 -20
-24 -22 -32 -9 -5 8 -9 35 -8 60 1 39 2 41 5 10 2 -19 6 -41 8 -48z m525 39
c0 -12 -9 -21 -26 -25 -15 -4 -28 -5 -30 -3 -9 8 8 36 24 40 30 8 32 7 32 -12z"/>
<path d="M1000 1829 c0 -5 5 -7 10 -4 6 3 10 8 10 11 0 2 -4 4 -10 4 -5 0 -10
-5 -10 -11z"/>
<path d="M1940 1819 c0 -35 -3 -40 -17 -34 -58 24 -66 13 -32 -40 40 -63 39
-64 -20 -72 -50 -7 -54 -27 -7 -43 59 -19 62 -32 16 -85 -23 -27 -40 -56 -40
-71 0 -13 2 -24 5 -24 2 0 26 14 52 30 58 37 64 37 58 3 -16 -106 -16 -111 5
-106 12 3 25 22 35 54 20 60 31 68 40 29 4 -16 11 -30 16 -30 6 0 9 -6 8 -12
-3 -27 2 -38 16 -38 11 0 15 12 15 45 0 25 4 45 8 45 4 0 23 -16 42 -35 19
-19 38 -35 42 -35 14 0 9 40 -12 82 l-20 41 49 -6 48 -6 1 46 c1 25 7 52 14
60 9 11 9 16 -1 23 -9 5 -15 40 -17 105 -3 54 -7 102 -10 107 -3 4 -70 8 -150
8 l-144 0 0 -41z m92 -9 c-3 -8 -15 -28 -26 -45 l-21 -30 -5 35 c-8 49 -2 60
30 58 20 -2 26 -6 22 -18z m163 1 c0 -8 -23 -33 -52 -58 l-51 -44 -7 50 c-4
28 -5 54 -2 58 9 14 112 8 112 -6z m-135 -74 c0 -10 5 -27 10 -38 10 -18 13
-18 39 -4 l29 15 -11 -31 c-10 -26 -9 -33 6 -43 16 -12 16 -15 2 -26 -14 -12
-13 -16 12 -36 l28 -23 -29 -1 c-23 0 -27 -3 -21 -17 23 -56 11 -74 -19 -28
-22 34 -36 31 -37 -7 l0 -33 -16 33 c-20 39 -40 41 -53 6 -11 -29 -34 -22 -24
8 5 17 2 19 -28 17 -18 -2 -40 -8 -48 -13 -13 -10 -13 -9 -1 9 8 11 26 32 39
46 l23 26 -25 21 c-33 25 -33 42 -1 42 30 0 31 9 5 55 -23 41 -20 43 20 13 29
-21 30 -21 50 -3 11 10 22 27 26 38 5 16 8 17 15 6 5 -8 9 -22 9 -32z m140
-12 c0 -15 -6 -25 -15 -25 -12 0 -13 4 -3 25 6 14 13 25 15 25 1 0 3 -11 3
-25z m10 -65 c0 -12 -17 -12 -45 0 -17 7 -15 9 13 9 17 1 32 -3 32 -9z m0 -76
c0 -12 -4 -12 -19 -2 -11 7 -18 15 -15 20 7 11 34 -3 34 -18z"/>
<path d="M1053 1733 c-7 -3 -12 -14 -12 -26 1 -16 2 -18 6 -5 2 9 12 18 21 20
9 2 13 6 7 9 -5 4 -16 4 -22 2z"/>
<path d="M1054 1546 c-3 -8 -1 -24 6 -35 7 -14 7 -21 0 -21 -6 0 -8 -11 -4
-27 4 -22 3 -25 -5 -13 -15 20 -14 4 1 -23 11 -21 13 -20 20 18 16 81 16 104
2 109 -8 3 -17 -1 -20 -8z"/>
<path d="M1610 1180 c-8 -5 -12 -10 -10 -12 3 -2 26 -18 53 -36 63 -45 101
-49 165 -22 28 12 57 28 63 36 6 8 20 14 30 14 23 0 25 15 4 24 -8 3 -45 -11
-82 -31 -78 -42 -105 -41 -155 7 -33 32 -44 35 -68 20z"/>
<path d="M1473 954 c-7 -3 -9 -13 -6 -22 5 -14 3 -15 -7 -5 -21 19 -65 -9 -68
-42 l-2 -27 34 26 c19 14 44 26 55 26 12 0 21 4 21 9 0 5 3 16 6 25 6 16 -8
20 -33 10z m-33 -43 c0 -13 -28 -22 -35 -11 -3 4 1 11 7 13 20 8 28 8 28 -2z"/>
<path d="M1580 860 c0 -5 5 -10 11 -10 5 0 7 5 4 10 -3 6 -8 10 -11 10 -2 0
-4 -4 -4 -10z"/>
<path d="M1517 849 c7 -7 15 -10 18 -7 3 3 -2 9 -12 12 -14 6 -15 5 -6 -5z"/>
<path d="M1979 786 c-2 -3 -36 -7 -74 -10 -39 -4 -88 -9 -110 -11 -22 -3 -120
-6 -217 -7 -134 -1 -178 -4 -178 -13 0 -7 11 -15 25 -17 53 -11 478 3 574 18
36 6 71 24 71 36 0 8 -83 11 -91 4z"/>
<path d="M2605 1753 c-158 -26 -209 -74 -222 -209 -10 -106 45 -184 130 -184
31 0 35 -3 39 -30 3 -20 -5 -46 -24 -82 -15 -28 -28 -55 -28 -60 0 -36 90 47
125 116 26 51 29 54 72 59 71 8 143 92 158 184 14 88 -59 187 -145 198 -25 3
-54 7 -65 8 -11 2 -29 1 -40 0z m144 -49 c37 -22 72 -76 78 -121 6 -49 -16
-101 -67 -154 -36 -38 -43 -41 -79 -36 -39 5 -40 4 -60 -39 -12 -24 -21 -48
-21 -54 0 -5 -4 -10 -10 -10 -5 0 -10 20 -10 44 0 52 -10 61 -65 58 -30 -2
-48 4 -70 22 -29 23 -30 27 -30 103 0 79 17 136 49 163 47 39 233 55 285 24z"/>
<path d="M2636 1635 c-4 -11 -13 -14 -25 -10 -17 5 -19 2 -14 -35 l6 -40 -47
0 c-53 0 -61 -18 -21 -44 27 -18 25 -36 -3 -36 -23 0 -52 50 -52 88 0 36 21
56 51 47 15 -5 20 -3 17 6 -7 22 -57 23 -80 2 -42 -38 2 -173 57 -173 12 0 33
8 45 18 19 16 21 22 11 40 -16 31 11 30 32 0 19 -30 28 -20 29 31 0 23 4 41 9
41 5 0 9 -6 9 -13 0 -18 34 -49 43 -40 4 3 7 20 8 37 1 25 3 22 13 -19 7 -27
17 -58 23 -69 16 -29 25 -2 14 41 -5 21 -12 60 -16 86 -5 38 -10 48 -23 45 -9
-2 -21 -13 -27 -26 -12 -27 -25 -29 -25 -3 0 27 -26 46 -34 26z"/>
</g>
</svg>
